<svg width="517" height="234" viewBox="0 0 517 234" fill="none" xmlns="http://www.w3.org/2000/svg">
<path d="M115.25 182.5H77.75L32.25 125.75V182.5H1.02073e-06V7.49999H32.25V112.5L75.25 57.5H113.75L63.5 119.25L115.25 182.5ZM126.348 182.5V-4.76837e-06H158.598V182.5H126.348ZM264.615 57.5H299.115L253.615 182.5C247.115 200.5 238.449 213.5 227.615 221.5C216.949 229.667 203.615 233.333 187.615 232.5V202.5C196.282 202.667 203.115 200.833 208.115 197C213.282 193.167 217.365 187 220.365 178.5L169.115 57.5H204.365L236.865 141.5L264.615 57.5ZM341.713 79C344.713 71 349.63 65 356.463 61C363.463 57 371.213 55 379.713 55V91C369.88 89.8333 361.046 91.8333 353.213 97C345.546 102.167 341.713 110.75 341.713 122.75V182.5H309.463V57.5H341.713V79ZM483.936 57.5H516.186V182.5H483.936V167.75C474.269 179.917 460.686 186 443.186 186C426.519 186 412.186 179.667 400.186 167C388.352 154.167 382.436 138.5 382.436 120C382.436 101.5 388.352 85.9167 400.186 73.25C412.186 60.4167 426.519 54 443.186 54C460.686 54 474.269 60.0833 483.936 72.25V57.5ZM424.436 145.5C430.936 152 439.186 155.25 449.186 155.25C459.186 155.25 467.436 152 473.936 145.5C480.602 138.833 483.936 130.333 483.936 120C483.936 109.667 480.602 101.25 473.936 94.75C467.436 88.0833 459.186 84.75 449.186 84.75C439.186 84.75 430.936 88.0833 424.436 94.75C417.936 101.25 414.686 109.667 414.686 120C414.686 130.333 417.936 138.833 424.436 145.5Z" fill="#151517"/>
</svg>
